<svg xmlns="http://www.w3.org/2000/svg" version="1.1" xmlns:xlink="http://www.w3.org/1999/xlink" xmlns:svgjs="http://svgjs.dev/svgjs" width="1500" height="1500" viewBox="0 0 1500 1500"><rect width="1500" height="1500" fill="#ffffff"></rect><g transform="matrix(0.6666666666666666,0,0,0.6666666666666666,249.1250124050269,68.55222672064775)"><svg viewBox="0 0 181 247" data-background-color="#ffffff" preserveAspectRatio="xMidYMid meet" height="2046" width="1500" xmlns="http://www.w3.org/2000/svg" xmlns:xlink="http://www.w3.org/1999/xlink"><g id="tight-bounds" transform="matrix(1,0,0,1,0.15837275469013434,-0.09999999999999432)"><svg viewBox="0 0 180.68325449061973 247.2" height="247.2" width="180.68325449061973"><g><svg viewBox="0 0 395.52 541.1267595087286" height="247.2" width="180.68325449061973"><g transform="matrix(1,0,0,1,0,319.0634169944143)"><svg viewBox="0 0 395.52 222.06334251431426" height="222.06334251431426" width="395.52"><g id="textblocktransform"><svg viewBox="0 0 395.52 222.06334251431426" height="222.06334251431426" width="395.52" id="textblock"><g><svg viewBox="0 0 395.52 126.45428928720298" height="126.45428928720298" width="395.52"><g transform="matrix(1,0,0,1,0,0)"><svg width="395.52" viewBox="2.35 -37.55 119.94000000000001 38.35" height="126.45428928720298" data-palette-color="#000000"><path d="M27.75-9L29-8.5Q27.7-3.95 24.2-1.58 20.7 0.8 15.95 0.8L15.95 0.8Q9.5 0.8 5.93-3.75 2.35-8.3 2.35-17.5L2.35-17.5Q2.35-20.95 2.95-24.5 3.55-28.05 5.05-30.93 6.55-33.8 9.08-35.65 11.6-37.5 15.45-37.5L15.45-37.5Q17.35-37.5 19.05-37 20.75-36.5 22.03-35.52 23.3-34.55 24.05-33.1 24.8-31.65 24.8-29.7L24.8-29.7Q24.8-28.1 24.2-27.15 23.6-26.2 22.15-26.2L22.15-26.2Q21.45-26.2 20.83-26.43 20.2-26.65 19.8-27.1L19.8-27.1Q20.25-27.45 20.63-28.55 21-29.65 21-31.05L21-31.05Q21-33.45 19.85-34.58 18.7-35.7 16.8-35.7L16.8-35.7Q14.55-35.7 12.93-34.23 11.3-32.75 10.25-30.3 9.2-27.85 8.72-24.75 8.25-21.65 8.25-18.35L8.25-18.35Q8.25-14.25 8.95-11.35 9.65-8.45 11-6.6 12.35-4.75 14.33-3.88 16.3-3 18.85-3L18.85-3Q22.1-3 24.25-4.42 26.4-5.85 27.75-9L27.75-9ZM27.6-34.3L32.6-35 32.6-8Q32.6-7.5 32.65-6.75 32.7-6 32.92-5.28 33.15-4.55 33.6-4.03 34.05-3.5 34.85-3.5L34.85-3.5Q37.3-3.5 38.45-8.95L38.45-8.95 40.3-8.95Q39.75-5.8 38.9-3.98 38.05-2.15 37.1-1.2 36.15-0.25 35.15 0.03 34.15 0.3 33.35 0.3L33.35 0.3Q31.6 0.3 30.5-0.38 29.4-1.05 28.75-2.1 28.1-3.15 27.85-4.45 27.6-5.75 27.6-6.95L27.6-6.95 27.6-34.3ZM47.5-25.25L47.5-25.25Q49.45-25.25 50.84-24.65 52.25-24.05 53.15-22.98 54.05-21.9 54.57-20.45 55.09-19 55.34-17.35L55.34-17.35 55.65-17.35Q57.75-17.35 59.5-18.2 61.25-19.05 62.5-20.35L62.5-20.35 63.25-19Q62.25-17.4 60.07-16.35 57.9-15.3 55.59-14.9L55.59-14.9Q55.59-14.4 55.62-13.9 55.65-13.4 55.65-12.85L55.65-12.85Q55.65-6.7 53.4-3.2 51.15 0.3 47.09 0.3L47.09 0.3Q45.45 0.3 43.77-0.3 42.09-0.9 40.75-2.3 39.4-3.7 38.57-5.9 37.75-8.1 37.75-11.35L37.75-11.35Q37.75-13.55 38.22-16 38.7-18.45 39.82-20.5 40.95-22.55 42.82-23.9 44.7-25.25 47.5-25.25ZM48-3.5L48-3.5Q50.65-3.5 51.9-6.13 53.15-8.75 53.15-13.55L53.15-13.55Q53.15-13.85 53.15-14.15 53.15-14.45 53.09-14.75L53.09-14.75Q51.65-14.85 51.02-15.4 50.4-15.95 50.4-17.25L50.4-17.25Q50.4-18.4 50.9-18.88 51.4-19.35 52.4-19.4L52.4-19.4Q51.8-21.15 50.87-21.83 49.95-22.5 48.8-22.5L48.8-22.5Q47.25-22.5 46.17-21.48 45.09-20.45 44.42-18.85 43.75-17.25 43.45-15.33 43.15-13.4 43.15-11.55L43.15-11.55Q43.15-9.1 43.59-7.55 44.05-6 44.75-5.1 45.45-4.2 46.3-3.85 47.15-3.5 48-3.5ZM59.34-31.9L64.34-32.6 64.34-25 68.19-25 68.19-23.25 64.34-23.25 64.34-8Q64.34-7.4 64.39-6.63 64.44-5.85 64.67-5.15 64.89-4.45 65.37-3.98 65.84-3.5 66.69-3.5L66.69-3.5Q68.04-3.5 69.27-4.85 70.49-6.2 71.19-8.95L71.19-8.95 73.04-8.95Q72.19-5.8 71.22-3.98 70.24-2.15 69.19-1.2 68.14-0.25 67.12 0.03 66.09 0.3 65.24 0.3L65.24 0.3Q63.44 0.3 62.29-0.38 61.14-1.05 60.49-2.1 59.84-3.15 59.59-4.42 59.34-5.7 59.34-6.95L59.34-6.95 59.34-23.25 57.64-23.25 57.64-25 59.34-25 59.34-31.9ZM71.09-34.3L76.09-35 76.09-21.2Q76.84-22.55 77.62-23.38 78.39-24.2 79.19-24.6 79.99-25 80.72-25.13 81.44-25.25 82.09-25.25L82.09-25.25Q84.34-25.25 85.72-24.4 87.09-23.55 87.79-22.23 88.49-20.9 88.72-19.33 88.94-17.75 88.94-16.3L88.94-16.3Q88.94-15.4 88.89-14.33 88.84-13.25 88.79-12.13 88.74-11 88.69-9.88 88.64-8.75 88.64-7.8L88.64-7.8Q88.64-7.4 88.69-6.68 88.74-5.95 88.94-5.25 89.14-4.55 89.59-4.03 90.04-3.5 90.89-3.5L90.89-3.5Q92.04-3.5 92.97-4.8 93.89-6.1 94.49-8.95L94.49-8.95 96.34-8.95Q95.79-5.8 94.94-3.98 94.09-2.15 93.14-1.2 92.19-0.25 91.24 0.03 90.29 0.3 89.49 0.3L89.49 0.3Q87.89 0.3 86.79-0.33 85.69-0.95 84.99-2 84.29-3.05 83.97-4.45 83.64-5.85 83.64-7.35L83.64-7.35Q83.64-7.8 83.67-9.03 83.69-10.25 83.72-11.65 83.74-13.05 83.77-14.3 83.79-15.55 83.79-16.05L83.79-16.05Q83.79-17.65 83.54-18.7 83.29-19.75 82.84-20.35 82.39-20.95 81.82-21.2 81.24-21.45 80.59-21.45L80.59-21.45Q79.04-21.45 77.92-20.2 76.79-18.95 76.09-16L76.09-16 76.09 0 71.09 0 71.09-34.3ZM122.29 0L116.89 0 110.34-15.05 104.24 0 101.89 0 109.04-18 101.39-35.7Q99.99-35.3 98.86-34.38 97.74-33.45 96.94-32.13 96.14-30.8 95.71-29.23 95.29-27.65 95.29-25.95L95.29-25.95Q95.29-23.65 95.86-22.25 96.44-20.85 97.14-20.15L97.14-20.15Q95.89-20.15 94.89-20.4 93.89-20.65 93.21-21.35 92.54-22.05 92.16-23.23 91.79-24.4 91.79-26.3L91.79-26.3Q91.79-28.8 92.81-30.88 93.84-32.95 95.54-34.43 97.24-35.9 99.49-36.73 101.74-37.55 104.19-37.55L104.19-37.55Q105.24-37.55 106.24-37.4L106.24-37.4 112.69-22.35 118.59-37.25 120.94-37.25 113.94-19.4 122.29 0Z" opacity="1" transform="matrix(1,0,0,1,0,0)" fill="#000000" class="wordmark-text-0" data-fill-palette-color="primary" id="text-0"></path></svg></g></svg></g><g transform="matrix(1,0,0,1,0,156.3071120849687)"><svg viewBox="0 0 395.52 65.75623042934555" height="65.75623042934555" width="395.52"><g transform="matrix(1,0,0,1,0,0)"><svg width="395.52" viewBox="1.35 -37.5 228.57 38" height="65.75623042934555" data-palette-color="#91a1a6"><path d="M12.95 0.5Q9.25 0.5 6.63-1.23 4-2.95 2.68-5.9 1.35-8.85 1.35-12.45L1.35-12.45Q1.35-15.9 2.58-18.78 3.8-21.65 6.13-23.33 8.45-25 11.65-25L11.65-25Q15.75-25 18.32-22.25 20.9-19.5 20.9-14.65L20.9-14.65Q20.9-13.8 20.7-12.3L20.7-12.3 5.8-12.3Q5.95-7.95 7.98-5.7 10-3.45 13.25-3.45L13.25-3.45Q14.8-3.45 16.53-3.83 18.25-4.2 19.55-4.9L19.55-4.9 19.95-1Q17.2 0.5 12.95 0.5L12.95 0.5ZM6-15.35L16.45-15.35Q16.45-17.85 15.23-19.43 14-21 11.7-21L11.7-21Q9.45-21 7.98-19.6 6.5-18.2 6-15.35L6-15.35ZM30.38 0L37.53-12.2 30.48-24.5 35.63-24.5 40.38-14.7 44.73-24.5 49.98-24.5 43.08-12.6 50.18 0 44.98 0 40.23-9.7 35.53 0 30.38 0ZM70.5 0.5Q64.9 0.5 62-3.03 59.1-6.55 59.1-12.1L59.1-12.1Q59.1-17.85 62-21.43 64.9-25 70.6-25L70.6-25Q73.65-25 76.05-23.75L76.05-23.75 75.35-19.9Q73.1-21.1 70.65-21.1L70.65-21.1Q67.3-21.1 65.43-18.78 63.55-16.45 63.55-12.3L63.55-12.3Q63.55-8.15 65.48-5.75 67.4-3.35 70.8-3.35L70.8-3.35Q73.4-3.35 75.4-4.55L75.4-4.55 76-0.65Q75-0.15 73.5 0.18 72 0.5 70.5 0.5L70.5 0.5ZM93.43 0.5Q90.63 0.5 89.28-1.2 87.93-2.9 87.93-5.4L87.93-5.4 87.93-37.5 92.28-37.5 92.28-8Q92.28-5.8 92.51-4.78 92.73-3.75 93.38-3.4 94.03-3.05 95.48-3.05L95.48-3.05 94.93 0.5 93.43 0.5ZM120.36-24.5L124.71-24.5 124.71 0 121.01 0 120.71-3Q119.71-1.35 118.01-0.43 116.31 0.5 114.26 0.5L114.26 0.5Q110.41 0.5 108.53-2.08 106.66-4.65 106.66-9.45L106.66-9.45 106.66-24.5 111.01-24.5 111.01-10Q111.01-6.7 111.98-5.08 112.96-3.45 115.26-3.45L115.26-3.45Q116.86-3.45 118.16-4.35 119.46-5.25 120.36-6.85L120.36-6.85 120.36-24.5ZM145.24 0.5Q140.94 0.5 137.79-1.5L137.79-1.5 138.34-5.9Q141.54-3.4 144.94-3.4L144.94-3.4Q146.74-3.4 147.76-4.15 148.79-4.9 148.79-6.35L148.79-6.35Q148.79-7.45 148.31-8.15 147.84-8.85 146.74-9.5 145.64-10.15 143.34-11.2L143.34-11.2Q140.64-12.45 139.39-14.05 138.14-15.65 138.14-18.2L138.14-18.2Q138.14-21.2 140.24-23.1 142.34-25 145.89-25L145.89-25Q149.49-25 152.19-23.4L152.19-23.4 151.64-19.35Q150.29-20.25 149.09-20.68 147.89-21.1 146.24-21.1L146.24-21.1Q144.49-21.1 143.49-20.35 142.49-19.6 142.49-18.25L142.49-18.25Q142.49-16.9 143.36-16.2 144.24-15.5 146.79-14.35L146.79-14.35Q150.34-12.75 151.79-11.13 153.24-9.5 153.24-6.85L153.24-6.85Q153.24-3.4 151.09-1.45 148.94 0.5 145.24 0.5L145.24 0.5ZM165.06-30.05L165.06-35 169.41-35 169.41-30.05 165.06-30.05ZM165.06 0L165.06-24.5 169.41-24.5 169.41 0 165.06 0ZM188.74 0L180.59-24.5 185.24-24.5 190.94-5.15 196.54-24.5 201.19-24.5 193.09 0 188.74 0ZM221.97 0.5Q218.27 0.5 215.64-1.23 213.02-2.95 211.69-5.9 210.37-8.85 210.37-12.45L210.37-12.45Q210.37-15.9 211.59-18.78 212.82-21.65 215.14-23.33 217.47-25 220.67-25L220.67-25Q224.77-25 227.34-22.25 229.92-19.5 229.92-14.65L229.92-14.65Q229.92-13.8 229.72-12.3L229.72-12.3 214.82-12.3Q214.97-7.95 216.99-5.7 219.02-3.45 222.27-3.45L222.27-3.45Q223.82-3.45 225.54-3.83 227.27-4.2 228.57-4.9L228.57-4.9 228.97-1Q226.22 0.5 221.97 0.5L221.97 0.5ZM215.02-15.35L225.47-15.35Q225.47-17.85 224.24-19.43 223.02-21 220.72-21L220.72-21Q218.47-21 216.99-19.6 215.52-18.2 215.02-15.35L215.02-15.35Z" opacity="1" transform="matrix(1,0,0,1,0,0)" fill="#91a1a6" class="slogan-text-1" data-fill-palette-color="secondary" id="text-1"></path></svg></g></svg></g></svg></g></svg></g><g transform="matrix(1,0,0,1,75.54432,0)"><svg viewBox="0 0 244.43135999999998 244.43135999999998" height="244.43135999999998" width="244.43135999999998"><g><svg viewBox="0 0 244.43135999999998 244.43135999999998" height="244.43135999999998" width="244.43135999999998"><g transform="matrix(1,0,0,1,65.80160765502634,64.60265593644993)"><svg viewBox="0 0 112.82814468994728 115.22604812710013" height="115.22604812710013" width="112.82814468994728"><g><svg xmlns="http://www.w3.org/2000/svg" data-name="Layer 1" viewBox="3.733954306810175 2.7906756195992815 92.53209138637965 94.49864876080142" x="0" y="0" height="115.22604812710013" width="112.82814468994728" class="icon-cg-0" data-fill-palette-color="accent" id="cg-0"><path d="M36.9 8.22l-2.23-0.94a6.15 6.15 0 0 0-8.32 4l-0.66 2.33A6.15 6.15 0 0 1 20.07 18l-2.42 0.12a6.15 6.15 0 0 0-5.86 6.13 6.23 6.23 0 0 0 0.09 1.06l0.41 2.38a6.15 6.15 0 0 1-3.13 6.46L7 35.34a6.15 6.15 0 0 0-2.08 9l1.41 2a6.15 6.15 0 0 1 0 7.18l-1.42 2a6.15 6.15 0 0 0 2 9l2.12 1.16a6.15 6.15 0 0 1 3.1 6.47l-0.43 2.38a6.23 6.23 0 0 0-0.1 1.09 6.15 6.15 0 0 0 5.83 6.13l2.42 0.13a6.15 6.15 0 0 1 5.6 4.49l0.65 2.33a6.15 6.15 0 0 0 8.3 4l2.23-0.93a6.15 6.15 0 0 1 7 1.62l1.6 1.82a6.15 6.15 0 0 0 9.22 0l1.61-1.81a6.15 6.15 0 0 1 7-1.58l2.23 0.94a6.15 6.15 0 0 0 8.32-4l0.66-2.33A6.15 6.15 0 0 1 79.93 82l2.42-0.11a6.14 6.14 0 0 0 5.77-7.19l-0.41-2.38a6.15 6.15 0 0 1 3.13-6.46L93 64.66a6.15 6.15 0 0 0 2.08-9l-1.41-2a6.15 6.15 0 0 1 0-7.18l1.42-2a6.15 6.15 0 0 0-2-9l-2.12-1.16a6.15 6.15 0 0 1-3.1-6.47l0.43-2.38a6.26 6.26 0 0 0 0.1-1.09 6.15 6.15 0 0 0-5.83-6.13L80.1 18.2a6.15 6.15 0 0 1-5.6-4.49l-0.65-2.33a6.15 6.15 0 0 0-8.3-4l-2.23 0.93a6.15 6.15 0 0 1-7-1.62l-1.6-1.82a6.15 6.15 0 0 0-9.22 0L43.9 6.64A6.15 6.15 0 0 1 36.9 8.22ZM49.34 37.8l0.67 0.67 0.66-0.66a12 12 0 1 1 17 17L51.31 71.12a1.83 1.83 0 0 1-2.59 0L32.37 54.77a12 12 0 1 1 17-17Z" fill="#d2d6dc" data-fill-palette-color="accent"></path></svg></g></svg></g><g id="text-0"><path d="M59.596 62.781l1.721-1.536c3.978 3.635 6.289 7.839 6.933 12.611 0.644 4.773-0.239 9.579-2.648 14.42v0c-3.274 6.577-8.136 10.53-14.585 11.86-6.453 1.336-14.365-0.328-23.736-4.994v0c-3.52-1.752-6.935-3.835-10.246-6.247-3.319-2.409-6.06-5.109-8.222-8.1-2.171-2.988-3.559-6.235-4.165-9.742-0.603-3.513 0.072-7.232 2.026-11.156v0c0.965-1.938 2.131-3.647 3.497-5.126 1.373-1.476 2.88-2.618 4.521-3.425 1.641-0.808 3.392-1.224 5.252-1.248 1.857-0.033 3.778 0.445 5.764 1.433v0c1.635 0.814 2.785 1.769 3.449 2.864 0.658 1.092 0.619 2.378-0.118 3.859v0c-0.355 0.714-0.804 1.332-1.347 1.856-0.549 0.521-1.153 0.869-1.812 1.046v0c-0.129-0.635-0.657-1.422-1.586-2.359-0.934-0.94-2.115-1.765-3.542-2.476v0c-2.444-1.217-4.531-1.525-6.262-0.925-1.731 0.6-3.079 1.869-4.044 3.808v0c-1.14 2.289-1.37 4.638-0.691 7.046 0.681 2.402 2.005 4.76 3.969 7.073 1.965 2.314 4.404 4.5 7.319 6.56 2.918 2.053 6.059 3.918 9.425 5.593v0c4.18 2.081 7.926 3.5 11.236 4.258 3.311 0.758 6.25 0.919 8.818 0.484 2.572-0.441 4.804-1.445 6.697-3.011 1.895-1.572 3.49-3.657 4.783-6.255v0c1.649-3.312 2.292-6.423 1.931-9.334-0.365-2.919-1.81-5.865-4.337-8.837z" fill="#d2d6dc" data-fill-palette-color="accent"></path><path d="M35.172 28.346l5.864-6.32 29.127 35.747c0.361 0.443 0.83 0.977 1.408 1.603 0.588 0.627 1.239 1.179 1.956 1.658 0.721 0.475 1.469 0.783 2.243 0.923 0.774 0.14 1.514-0.077 2.219-0.652v0c2.163-1.762 1.792-5.461-1.112-11.097v0l2.456-2.001c1.776 3.179 2.948 5.879 3.514 8.099 0.557 2.219 0.758 4.09 0.603 5.613-0.155 1.523-0.575 2.765-1.258 3.724-0.689 0.964-1.385 1.733-2.091 2.308v0c-1.545 1.259-3.043 1.986-4.493 2.183-1.46 0.196-2.853 0.063-4.18-0.398-1.332-0.457-2.574-1.172-3.726-2.144-1.157-0.968-2.166-1.98-3.026-3.035v0z" fill="#d2d6dc" data-fill-palette-color="accent"></path><path d="M87.367 18.335v0c2.139-0.613 4.069-0.81 5.79-0.592 1.721 0.218 3.241 0.774 4.562 1.667 1.32 0.893 2.495 2.052 3.525 3.477 1.029 1.419 1.939 2.992 2.732 4.721v0l0.488-0.14c2.299-0.659 4.273-1.726 5.924-3.201 1.648-1.481 2.952-3.13 3.91-4.945v0l1.869 1.858c-0.589 2.069-1.909 4.019-3.961 5.851-2.052 1.832-4.274 3.326-6.665 4.481v0c0.157 0.549 0.328 1.095 0.51 1.637 0.181 0.535 0.359 1.106 0.533 1.713v0c1.929 6.73 2.213 12.363 0.853 16.898-1.368 4.531-4.268 7.432-8.699 8.702v0c-1.807 0.518-3.72 0.714-5.74 0.588-2.021-0.132-3.989-0.753-5.903-1.863-1.921-1.108-3.676-2.736-5.266-4.885-1.597-2.147-2.905-4.999-3.924-8.556v0c-0.69-2.407-1.158-5.027-1.403-7.859-0.252-2.83-0.083-5.545 0.505-8.146 0.59-2.594 1.698-4.923 3.325-6.985 1.631-2.071 3.976-3.544 7.035-4.421zM98.425 53.804v0c2.899-0.831 4.623-2.88 5.172-6.146 0.543-3.265 0.062-7.522-1.442-12.771v0c-0.095-0.332-0.189-0.661-0.283-0.986-0.095-0.332-0.218-0.653-0.369-0.962v0c-1.615 0.345-2.85 0.313-3.707-0.098-0.855-0.404-1.487-1.319-1.895-2.742v0c-0.361-1.258-0.344-2.223 0.05-2.896 0.399-0.681 1.137-1.203 2.215-1.568v0c-1.2-1.729-2.414-2.818-3.642-3.268-1.226-0.443-2.468-0.485-3.725-0.124v0c-1.692 0.485-2.969 1.456-3.83 2.912-0.853 1.461-1.399 3.172-1.638 5.133-0.233 1.96-0.213 4.041 0.059 6.244 0.278 2.2 0.708 4.313 1.288 6.337v0c0.769 2.682 1.642 4.801 2.62 6.358 0.979 1.558 1.992 2.718 3.04 3.482 1.048 0.764 2.093 1.203 3.135 1.32 1.042 0.116 2.026 0.041 2.952-0.225z" fill="#d2d6dc" data-fill-palette-color="accent"></path><path d="M121.54 0.332l8.616-0.332-1.305 12.917 6.543 0.66-0.3 2.974-6.543-0.66-2.617 25.912c-0.069 0.681-0.121 1.46-0.155 2.338-0.029 0.885 0.042 1.737 0.212 2.555 0.178 0.819 0.507 1.527 0.988 2.122 0.488 0.59 1.214 0.934 2.179 1.032v0c1.527 0.154 3.061-0.462 4.603-1.849 1.543-1.393 2.868-3.606 3.975-6.638v0l3.142 0.317c-1.325 3.471-2.644 6.185-3.957 8.142-1.312 1.95-2.617 3.404-3.915 4.362-1.298 0.957-2.545 1.532-3.739 1.725-1.188 0.194-2.264 0.242-3.229 0.145v0c-2.035-0.206-3.669-0.754-4.901-1.647-1.224-0.898-2.143-1.979-2.757-3.242-0.62-1.264-0.996-2.631-1.128-4.1-0.138-1.476-0.136-2.921 0.007-4.335v0l2.797-27.697-2.895-0.293 0.3-2.973 2.895 0.292z" fill="#d2d6dc" data-fill-palette-color="accent"></path><path d="M161.26 4.555l8.077 3.017-11.226 20.718c1.484-0.941 2.838-1.613 4.061-2.015 1.22-0.412 2.341-0.598 3.362-0.559 1.018 0.031 1.923 0.181 2.714 0.451 0.794 0.264 1.518 0.573 2.172 0.927v0c2.248 1.218 3.831 2.627 4.747 4.227 0.916 1.599 1.366 3.252 1.348 4.957-0.017 1.705-0.342 3.407-0.975 5.104-0.627 1.7-1.332 3.275-2.117 4.723v0c-0.487 0.899-1.05 1.875-1.688 2.927-0.629 1.049-1.275 2.123-1.938 3.222-0.663 1.099-1.322 2.196-1.976 3.292-0.663 1.099-1.253 2.124-1.769 3.076v0c-0.218 0.403-0.497 0.981-0.837 1.733-0.346 0.749-0.606 1.53-0.782 2.342-0.181 0.808-0.189 1.597-0.024 2.366 0.165 0.769 0.674 1.385 1.526 1.847v0c1.151 0.623 2.543 0.535 4.177-0.264 1.628-0.802 3.515-2.466 5.662-4.989v0l2.777 1.504c-2.258 2.856-4.308 4.967-6.152 6.334-1.84 1.36-3.491 2.26-4.952 2.699-1.468 0.436-2.752 0.534-3.853 0.292-1.101-0.241-2.051-0.579-2.851-1.012v0c-1.6-0.867-2.783-1.912-3.548-3.135-0.759-1.22-1.205-2.545-1.336-3.976-0.131-1.431 0.019-2.936 0.452-4.515 0.432-1.579 1.055-3.119 1.868-4.62v0c0.244-0.45 0.712-1.28 1.406-2.49 0.688-1.214 1.423-2.515 2.206-3.904 0.783-1.389 1.527-2.7 2.234-3.935 0.701-1.237 1.187-2.107 1.459-2.609v0c0.867-1.6 1.46-2.994 1.778-4.181 0.318-1.187 0.416-2.204 0.292-3.049-0.124-0.845-0.407-1.55-0.849-2.114-0.439-0.555-0.986-1.01-1.64-1.365v0c-1.548-0.839-3.224-0.938-5.028-0.299-1.804 0.639-3.857 2.246-6.16 4.822v0l-13.014 24.02-7.508-4.067z" fill="#d2d6dc" data-fill-palette-color="accent"></path><path d="M186.319 112.911l-4.654-7.967 16.557-22.619-27.453 3.968-2.02-3.458 32.697-4.966 19.512-26.527c-1.2-1.145-2.576-2.007-4.129-2.584-1.559-0.574-3.218-0.874-4.979-0.899-1.761-0.025-3.538 0.205-5.331 0.691-1.793 0.486-3.524 1.216-5.193 2.191v0c-2.26 1.32-3.912 2.666-4.957 4.038-1.048 1.366-1.715 2.594-2.001 3.685v0c-0.717-1.227-1.239-2.403-1.565-3.528-0.335-1.127-0.352-2.222-0.049-3.284 0.3-1.067 0.921-2.123 1.865-3.166 0.935-1.046 2.337-2.116 4.208-3.208v0c2.455-1.434 4.998-2.243 7.629-2.426 2.631-0.183 5.157 0.137 7.578 0.962 2.429 0.827 4.696 2.107 6.8 3.839 2.102 1.741 3.857 3.817 5.264 6.225v0c0.603 1.032 1.117 2.082 1.54 3.15v0l-16.628 22.477 27.053-4.138 2.025 3.467-32.356 5.055z" fill="#d2d6dc" data-fill-palette-color="accent"></path><path d="M43.892 196.399l0.184 2.291c-5.304 0.988-10.059 0.299-14.264-2.066-4.197-2.362-7.504-5.968-9.921-10.819v0c-3.279-6.581-3.505-12.851-0.678-18.809 2.824-5.964 8.928-11.283 18.309-15.957v0c3.526-1.757 7.251-3.231 11.177-4.422 3.926-1.192 7.739-1.752 11.441-1.682 3.692 0.068 7.124 0.922 10.293 2.564 3.173 1.632 5.739 4.413 7.697 8.343v0c0.966 1.938 1.624 3.9 1.975 5.884 0.354 1.991 0.358 3.884 0.014 5.681-0.344 1.797-1.065 3.447-2.164 4.952-1.101 1.499-2.648 2.744-4.639 3.737v0c-1.629 0.812-3.081 1.153-4.355 1.023-1.274-0.13-2.279-0.931-3.013-2.406v0c-0.358-0.719-0.583-1.453-0.674-2.202-0.085-0.752-0.001-1.447 0.252-2.085v0c0.585 0.28 1.535 0.333 2.852 0.16 1.313-0.179 2.683-0.624 4.11-1.336v0c2.449-1.22 3.956-2.702 4.52-4.445 0.561-1.749 0.359-3.592-0.607-5.53v0c-1.143-2.295-2.88-3.897-5.211-4.806-2.331-0.909-5.014-1.275-8.05-1.099-3.03 0.174-6.248 0.805-9.654 1.893-3.403 1.094-6.79 2.481-10.161 4.161v0c-4.18 2.082-7.572 4.218-10.177 6.407-2.605 2.189-4.507 4.442-5.704 6.76-1.203 2.321-1.749 4.712-1.636 7.171 0.112 2.46 0.816 4.989 2.11 7.587v0c1.653 3.317 3.751 5.712 6.295 7.183 2.55 1.468 5.776 2.091 9.679 1.867z" fill="#d2d6dc" data-fill-palette-color="accent"></path><path d="M78.671 169.541l7.383 4.472-29.157 35.799c-0.361 0.443-0.789 1.015-1.284 1.717-0.491 0.697-0.9 1.447-1.229 2.25-0.319 0.802-0.469 1.597-0.45 2.384 0.019 0.787 0.384 1.469 1.095 2.048v0c2.163 1.762 5.713 0.648 10.649-3.341v0l2.457 2.001c-2.753 2.392-5.163 4.088-7.228 5.087-2.065 1-3.859 1.577-5.382 1.733-1.523 0.156-2.826-0.006-3.909-0.486-1.083-0.479-1.977-1.006-2.683-1.581v0c-1.545-1.258-2.563-2.58-3.054-3.965-0.487-1.39-0.638-2.782-0.455-4.174 0.182-1.402 0.631-2.767 1.345-4.097 0.714-1.329 1.503-2.524 2.367-3.584v0z" fill="#d2d6dc" data-fill-palette-color="accent"></path><path d="M97.825 196.468v0c2.139 0.613 3.88 1.468 5.225 2.565 1.344 1.097 2.341 2.378 2.992 3.843 0.646 1.457 1.029 3.062 1.148 4.817 0.119 1.755 0.057 3.575-0.187 5.46v0l0.498 0.143c2.299 0.659 4.543 0.798 6.732 0.417 2.181-0.377 4.163-1.083 5.945-2.12v0l0.589 2.573c-1.595 1.443-3.752 2.397-6.469 2.862-2.711 0.467-5.391 0.558-8.039 0.276v0c-0.157 0.549-0.298 1.1-0.422 1.651-0.132 0.556-0.285 1.138-0.459 1.745v0c-1.931 6.736-4.679 11.67-8.244 14.8-3.563 3.124-7.566 4.05-12.01 2.776v0c-1.807-0.518-3.533-1.365-5.179-2.542-1.65-1.185-2.992-2.758-4.027-4.72-1.042-1.957-1.67-4.272-1.885-6.946-0.21-2.665 0.195-5.779 1.217-9.342v0c0.692-2.414 1.681-4.887 2.967-7.421 1.294-2.538 2.879-4.751 4.754-6.638 1.877-1.894 4.055-3.287 6.536-4.18 2.481-0.892 5.253-0.898 8.318-0.019zM88.399 232.457v0c2.905 0.833 5.453 0.009 7.643-2.473 2.198-2.486 4.052-6.36 5.56-11.621v0c0.093-0.326 0.188-0.654 0.283-0.987 0.093-0.326 0.158-0.66 0.194-1.001v0c-1.557-0.571-2.591-1.254-3.103-2.05-0.511-0.796-0.562-1.909-0.151-3.34v0c0.361-1.258 0.89-2.067 1.587-2.426 0.693-0.368 1.597-0.423 2.711-0.166v0c-0.108-2.104-0.564-3.672-1.367-4.704-0.796-1.03-1.827-1.726-3.091-2.089v0c-1.698-0.487-3.296-0.337-4.793 0.451-1.503 0.785-2.877 1.949-4.121 3.493-1.236 1.539-2.323 3.318-3.261 5.335-0.93 2.014-1.686 4.036-2.268 6.067v0c-0.769 2.682-1.151 4.942-1.146 6.781 0.005 1.839 0.248 3.364 0.731 4.573 0.484 1.203 1.138 2.13 1.96 2.78 0.822 0.65 1.7 1.109 2.632 1.377z" fill="#d2d6dc" data-fill-palette-color="accent"></path><path d="M115.415 190.586l8.385-2.046 1.302 12.927 6.553-0.66 0.3 2.983-6.552 0.66 2.613 25.944c0.069 0.681 0.177 1.458 0.325 2.33 0.148 0.873 0.388 1.693 0.718 2.461 0.338 0.767 0.801 1.395 1.391 1.883 0.596 0.481 1.376 0.673 2.342 0.575v0c1.527-0.154 2.91-1.064 4.151-2.731 1.233-1.673 2.09-4.109 2.568-7.308v0l3.152-0.318c-0.605 3.673-1.358 6.599-2.26 8.779-0.895 2.18-1.884 3.868-2.964 5.066-1.081 1.197-2.188 2.009-3.32 2.437-1.132 0.428-2.18 0.69-3.145 0.787v0c-2.042 0.206-3.752-0.006-5.131-0.634-1.386-0.635-2.505-1.51-3.359-2.626-0.861-1.122-1.506-2.389-1.935-3.801-0.43-1.419-0.716-2.839-0.859-4.259v0l-2.793-27.728-2.885 0.291-0.3-2.984 2.885-0.291z" fill="#d2d6dc" data-fill-palette-color="accent"></path><path d="M128.41 186.18l6.949-5.121 11.234 20.759c0.02-1.763 0.194-3.27 0.523-4.52 0.331-1.244 0.788-2.284 1.37-3.12 0.582-0.836 1.205-1.513 1.869-2.032 0.655-0.521 1.309-0.958 1.963-1.311v0c2.255-1.22 4.302-1.777 6.143-1.671 1.84 0.107 3.471 0.636 4.893 1.589 1.419 0.947 2.669 2.147 3.75 3.601 1.079 1.463 2.01 2.919 2.794 4.367v0c0.49 0.905 1.003 1.908 1.538 3.009 0.532 1.109 1.08 2.24 1.643 3.393 0.558 1.156 1.115 2.312 1.673 3.467 0.563 1.153 1.103 2.205 1.618 3.158v0c0.218 0.403 0.547 0.954 0.986 1.653 0.448 0.702 0.961 1.349 1.538 1.943 0.584 0.59 1.243 1.027 1.978 1.309 0.734 0.282 1.528 0.193 2.381-0.269v0c1.151-0.623 1.838-1.837 2.061-3.642 0.224-1.805-0.136-4.299-1.08-7.482v0l2.777-1.503c1.161 3.458 1.81 6.331 1.947 8.621 0.137 2.29-0.013 4.169-0.45 5.637-0.437 1.468-1.057 2.596-1.861 3.386-0.804 0.79-1.606 1.401-2.405 1.834v0c-1.606 0.869-3.131 1.29-4.574 1.263-1.442-0.028-2.799-0.377-4.068-1.049-1.27-0.672-2.45-1.624-3.539-2.855-1.08-1.228-2.026-2.593-2.839-4.094v0c-0.247-0.456-0.69-1.303-1.331-2.542-0.641-1.239-1.326-2.568-2.055-3.986-0.739-1.42-1.434-2.762-2.087-4.025-0.656-1.269-1.12-2.154-1.393-2.657v0c-0.866-1.601-1.71-2.859-2.53-3.774-0.818-0.925-1.617-1.564-2.398-1.919-0.775-0.358-1.519-0.504-2.23-0.436-0.708 0.059-1.39 0.265-2.044 0.619v0c-1.554 0.841-2.556 2.192-3.007 4.052-0.448 1.866-0.222 4.467 0.677 7.802v0l13.022 24.062-7.518 4.069z" fill="#d2d6dc" data-fill-palette-color="accent"></path><path d="M228.074 162.778l-4.662 7.973-27.869-3.325 16.949 21.997-2.027 3.466-20.396-26.091-32.733-3.988c-0.409 1.607-0.484 3.229-0.225 4.866 0.264 1.64 0.818 3.233 1.66 4.78 0.845 1.556 1.918 2.996 3.221 4.319 1.309 1.327 2.798 2.479 4.467 3.455v0c2.265 1.325 4.251 2.105 5.959 2.342 1.714 0.241 3.116 0.218 4.206-0.067v0c-0.721 1.233-1.491 2.267-2.311 3.103-0.823 0.842-1.773 1.394-2.851 1.657-1.077 0.263-2.302 0.239-3.674-0.071-1.373-0.31-2.994-1.012-4.863-2.106v0c-2.46-1.439-4.415-3.259-5.866-5.462-1.454-2.197-2.417-4.557-2.889-7.079-0.471-2.523-0.467-5.129 0.013-7.818 0.48-2.689 1.426-5.241 2.838-7.655v0c0.604-1.032 1.268-1.998 1.994-2.897v0l27.783 3.471-16.901-21.565 2.032-3.475 20.298 25.745z" fill="#d2d6dc" data-fill-palette-color="accent"></path><path d="M4.343 125.641c0-13.529 10.967-24.496 24.496-24.496 13.529 0 24.496 10.967 24.495 24.496 0 13.529-10.967 24.496-24.495 24.495-13.529 0-24.496-10.967-24.496-24.495z" fill="#d2d6dc" data-fill-palette-color="accent"></path><path d="M184.206 125.641c0-13.529 10.967-24.496 24.496-24.496 13.529 0 24.496 10.967 24.496 24.496 0 13.529-10.967 24.496-24.496 24.495-13.529 0-24.496-10.967-24.496-24.495z" fill="#d2d6dc" data-fill-palette-color="accent"></path></g><g id="text-1"></g></svg></g></svg></g><g></g></svg></g><defs></defs></svg><rect width="180.68325449061973" height="247.2" fill="none" stroke="none" visibility="hidden"></rect></g></svg></g></svg>